<svg xmlns="http://www.w3.org/2000/svg" xml:space="preserve" width="800" height="800" data-version="2">
    <rect width="100%" height="100%" fill="#fff"/>
    <g transform="matrix(1.6064 0 0 1.6072 310.77 320.977)">
        <linearGradient id="a" x1="0" x2="1" y1="0" y2="0" gradientUnits="objectBoundingBox">
            <stop offset="0%" stop-color="#864D25"/>
            <stop offset="49.8%" stop-color="#F1C4B3"/>
            <stop offset="100%" stop-color="#864D25"/>
        </linearGradient>
        <path fill="url(#a)" fill-rule="evenodd" d="M424.319 55.632c-1.551 1.607-5.744 6.709-9.319 11.337-12.1 15.663-27.906 30.197-42.5 39.079-2.2 1.338-10.975 5.864-19.5 10.057-15.689 7.716-23.308 12.778-32.649 21.694-2.832 2.703-9.481 7.229-14.775 10.058-9.286 4.962-9.908 5.143-17.637 5.143-5.024 0-12.235-.963-19.338-2.583l-11.326-2.583-10.718 2.583c-7.023 1.693-13.535 2.583-18.894 2.583-7.782 0-8.66-.239-18.17-4.936-6.708-3.313-12.436-7.101-17.424-11.523-10.193-9.035-14.991-12.041-34.069-21.344-18.97-9.25-30.023-16.347-41.252-26.486-7.296-6.588-19.55-20.109-27.608-30.461-1.819-2.337-3.929-4.25-4.689-4.25-4.093 0-4.44 12.182-.562 19.783C85.05 76.058 86 78.172 86 78.479c0 .307-3.413-1.25-7.585-3.46C74.243 72.809 69.707 71 68.336 71c-2.292 0-2.438.264-1.791 3.25 1.415 6.537 6.639 15.003 13.478 21.842C87.075 103.144 100.975 113 103.868 113c.887 0-2.854-4.163-8.312-9.25C85.7 94.564 77 84.071 77 81.371c0-1.032.735-1.231 2.75-.741 3.203.778 37.22 17.567 45.155 22.287 2.973 1.768 8.453 4.749 12.176 6.624 3.723 1.875 7.011 3.799 7.306 4.276.295.477-1.507.898-4.003.936-5.338.081-5.813.405-5.046 3.45.706 2.808 9.144 13.369 12.896 16.142 3.435 2.54 4.894 1.408 1.658-1.287-1.997-1.662-2.103-1.997-.642-2.025 2.634-.05 2.152-1.235-2.25-5.533-4.398-4.295-4.889-5.497-2.25-5.506.963-.004 3.02-.669 4.571-1.478 2.711-1.414 3.337-1.221 16 4.94 7.249 3.526 14.529 7.572 16.179 8.992l3 2.581-5.5-2.096c-10.001-3.812-9.716-3.938-6.003 2.657 5.759 10.232 17.62 25.709 23.805 31.062l2.486 2.153-3.5 8.847c-8.025 20.287-8.589 35.907-1.735 48.083 2.767 4.916 2.947 5.906 2.947 16.25V253h-4.065c-2.235 0-6.285-.955-9-2.123-4.818-2.073-6.425-3.877-3.453-3.877 1.615 0 11.161-8.69 10.392-9.46-.26-.259-2.664.638-5.343 1.994-6.325 3.202-14.108 3.373-17.896.393-1.449-1.139-2.635-2.449-2.635-2.91 0-.461 1.926-1.771 4.28-2.911 4.297-2.08 13.069-10.106 11.045-10.106-.594 0-2.696.675-4.671 1.5-5.061 2.115-13.263 1.859-18.654-.581-4.268-1.932-10-6.503-10-7.974 0-.375 1.853-.93 4.118-1.234 6.992-.938 23.882-10.602 23.882-13.665 0-.444-3.937.567-8.75 2.246-12.188 4.254-22.058 4.41-28.064.444-2.303-1.52-4.186-3.208-4.186-3.75 0-.576 4.058-1.015 9.75-1.056 11.688-.085 16.381-1.339 8.75-2.34-15.108-1.98-25.489-5.756-30.504-11.095l-2.463-2.621 7.484.665c4.159.369 11.036.169 15.483-.451 8.192-1.142 20.069-4.582 20.996-6.081.284-.461-6.348-.597-14.739-.303-17.237.605-24.595-.378-32.412-4.33-4.761-2.406-14.288-10.818-13.283-11.728.241-.217 4.938-.024 10.438.431 12.71 1.05 32.5 1.155 32.499.173-.001-.412-4.9-1.545-10.888-2.516-25.697-4.168-41.262-12.865-51.27-28.645-3.672-5.791-3.583-6.711.409-4.244 10.575 6.536 22.507 11.033 43.05 16.227 15.246 3.854 22.444 6.609 35.34 13.526 7.53 4.039 10.212 5.95 9.44 6.722-2.049 2.049-1.065 4.523 3.344 8.404 3.953 3.48 11.576 7.078 11.576 5.464 0-.344-2.283-2.937-5.073-5.762-4.614-4.672-4.931-5.279-3.5-6.71 2.243-2.243 1.954-3.404-1.036-4.154-1.434-.36-6.914-3.395-12.176-6.743-13.235-8.423-19.271-11.035-37.715-16.319-25.636-7.346-37.445-12.343-46.655-19.744-6.039-4.854-11.238-14.478-5.595-10.357 11.57 8.448 24.983 15.876 36.75 20.35 8.122 3.089 28.204 8.243 29.351 7.534.47-.291-4.479-2.725-10.998-5.41-21.759-8.962-41.461-19.374-48.2-25.473-3.389-3.067-5.906-5.99-5.594-6.496C77.277 96.743 66.165 85 64.348 85c-3.306 0 .277 16.101 5.179 23.275 1.783 2.61 2.673 5.389 2.882 9 .532 9.201 8.839 22.673 18.857 30.586 2.879 2.273 6.134 4.846 7.234 5.718 1.479 1.172 1.57 1.451.347 1.071-.909-.282-2.373.019-3.254.669-1.453 1.071-1.405 1.578.523 5.463 2.274 4.582 12.124 14.842 15.181 15.812 1.112.353 1.623 1.171 1.285 2.054-1.269 3.305 4.451 10.969 12.092 16.205 1.846 1.265 3.443 3.404 3.819 5.114.893 4.065 3.879 7.581 8.977 10.569 3.056 1.79 4.191 3.043 3.87 4.27-.715 2.737 5 9.667 11.003 13.34 3.708 2.269 5.648 4.167 5.997 5.865 1.757 8.574 21.041 23.287 36.639 27.956 4.942 1.479 5.617 2.026 6.896 5.586 4.121 11.47 6.563 16.57 13.59 28.388l7.703 12.955-3.274 4.802c-9.303 13.644-23.399 29.545-29.644 33.439-4.012 2.501-4.121 4.361-.368 6.302 2.016 1.043 3.074 2.512 3.52 4.888.878 4.684 3.746 7.093 7.54 6.335 2.818-.564 2.966-.439 2.501 2.119-.272 1.496.079 3.778.781 5.073 1.91 3.523 11.949 9.346 16.114 9.346 2.817 0 3.608.448 4.075 2.309.676 2.695 7.737 6.491 12.074 6.491 1.571 0 3.648-.717 4.616-1.593 1.64-1.485 1.903-1.316 3.832 2.466 3.293 6.455 8.431 8.01 12.824 3.883 2.217-2.082 2.459-2.118 3.365-.5 1.52 2.717 7.554 2.198 13.376-1.149 6.874-3.952 8.319-5.846 8.685-11.381l.315-4.759 3.513 4.767c5.38 7.301 10.527 6.821 14.128-1.32 2.146-4.851 2.467-5.025 5.3-2.882 4.274 3.232 9.051.322 13.762-8.384 1.337-2.469 2.361-3.148 4.75-3.148 4.609 0 7.047-3.051 7.047-8.82 0-4.477.231-4.921 3.25-6.25 3.009-1.324 7.464-7.518 7.669-10.663.045-.678-2.282-2.424-5.169-3.88-6.996-3.527-19.549-13.481-28.63-22.702l-7.381-7.494 3.518-5.846c5.517-9.168 8.77-16.052 12.65-26.767l3.593-9.921 5.5-1.137c14.635-3.026 37.953-21.031 38.022-29.36.017-2.03 1.088-3.37 4.522-5.66 5.463-3.641 9.739-9.478 9.283-12.669-.237-1.662.449-2.824 2.39-4.048 3.756-2.368 8.929-9.762 8.598-12.289-.183-1.392 1.145-3.367 3.997-5.943 5.724-5.172 8.399-9.101 8.575-12.596.103-2.044 1.153-3.64 3.566-5.421 10.514-7.756 17.032-21.881 9.288-20.125l-2.741.622 3-2.182c1.65-1.2 6.198-5.384 10.107-9.297 8.251-8.259 14.479-19.664 14.575-26.691.039-2.816 1.005-5.663 2.973-8.766 1.603-2.527 3.574-6.814 4.38-9.527 1.64-5.519 1.968-14.568.528-14.568-.516 0-3.42 3.037-6.453 6.75-10.822 13.246-12.182 14.636-18.013 18.418-8.185 5.309-26.827 14.619-40.936 20.444-17.691 7.303-9.77 6.912 13.839-.684 9.447-3.039 29.355-13.435 37.201-19.426 2.537-1.937 4.822-3.313 5.077-3.057 1.173 1.173-3.927 8.431-8.363 11.901-7.502 5.87-19.478 11.039-41.072 17.728-23.483 7.274-27.813 9.114-40.843 17.364-5.5 3.483-11.012 6.639-12.25 7.014-2.173.659-3.179 2.548-1.357 2.548.491 0 1.183.756 1.538 1.68.452 1.179-.915 3.26-4.585 6.976-2.876 2.912-4.987 5.537-4.691 5.832 1.083 1.083 8.098-2.68 12.412-6.657 4.723-4.353 5.404-6.188 2.832-7.627-1.263-.707.054-1.865 6.25-5.496 11.534-6.759 17.269-9.052 36.504-14.6 23.132-6.671 27.644-8.304 37.644-13.624 4.674-2.487 8.672-4.348 8.884-4.136.212.212-1.871 3.759-4.629 7.883-8.981 13.427-21.758 20.876-43.289 25.235-6.883 1.394-13.497 2.534-14.698 2.534-1.201 0-1.905.45-1.565 1 .759 1.228 13.83 1.242 30.48.032 6.863-.498 12.689-.697 12.945-.441 1.191 1.191-11.432 11.469-16.7 13.596-5.326 2.152-7.066 2.307-24.975 2.228-10.587-.046-19.25.226-19.25.605 0 1.221 14.412 5.011 22.502 5.918 4.319.485 11.26.638 15.425.34l7.573-.541-2.809 2.998c-4.084 4.358-12.517 8.266-20.353 9.431-14.747 2.192-14.142 2.038-11.338 2.882 1.375.414 7.098.797 12.719.852 11.406.112 12.343 1.032 5.432 5.33-5.281 3.284-16.876 3.03-27.076-.593-9.72-3.452-11.504-3.363-7.075.353 5.54 4.648 16.95 10.004 22.75 10.678 3.362.391 5.25 1.083 5.25 1.925 0 2.032-8.809 8.281-12.703 9.011-4.648.872-12.477-.129-16.243-2.076-1.68-.869-3.054-1.148-3.054-.621 0 1.584 8.332 7.91 13.33 10.121 2.568 1.136 4.667 2.382 4.663 2.769-.004.387-1.494 1.715-3.312 2.953-4.649 3.165-9.899 2.921-16.931-.785-3.163-1.667-5.75-2.582-5.75-2.033 0 1.815 5.938 7.8 8.995 9.066 3.966 1.643 3.792 2.47-.918 4.354-4.245 1.699-16.799 4.259-17.491 3.567-.234-.234-.491-6.498-.573-13.922-.124-11.349.177-14.372 1.887-18.997 4.139-11.188 2.09-28.47-5.308-44.786l-3.438-7.582 5.229-6.066c2.876-3.336 6.615-7.866 8.308-10.066 3.737-4.858 14.309-21.595 14.309-22.655 0-.419-2.99.58-6.644 2.22-15.008 6.733-4.554-1.382 12.399-9.625 8.198-3.986 11.803-5.282 12.57-4.515.591.591 2.308 1.075 3.816 1.075s2.97.371 3.25.824c.28.453-1.528 3.153-4.018 6-3.39 3.875-4.088 5.176-2.776 5.176 1.51 0 1.427.345-.597 2.5-2.62 2.789-2.313 3.055 1.513 1.312 3.707-1.689 14.651-15.672 14.282-18.248-.241-1.686-1.209-2.158-5.295-2.579-3.66-.378-4.459-.711-2.981-1.244 1.111-.401 8.761-4.576 17-9.278 26.949-15.38 47.31-24.967 49.139-23.138 1.337 1.336-7.33 12.544-17.374 22.466-8.737 8.632-9.844 10.052-6.862 8.806 10.5-4.387 25.993-18.986 30.602-28.834 1.69-3.612 3.163-7.848 3.274-9.415.173-2.441-.133-2.812-2.144-2.593-1.29.141-5.531 1.825-9.424 3.743-3.894 1.917-7.21 3.356-7.37 3.196-.159-.16.869-3.16 2.285-6.667 2.839-7.029 2.854-13.957.035-16.776-1.39-1.39-1.821-1.253-4.361 1.381m-6.322 15.082c-3.482 4.282-7.923 9.474-9.867 11.536-4.268 4.527-3.157 4.787 3.206.752 6.425-4.075 10.545-8.478 12.888-13.776 3.377-7.634.664-6.986-6.227 1.488M86.395 67.225c1.278 6.389 7.907 13.327 17.355 18.163 4.699 2.405 4.015.796-2.305-5.422-3.055-3.006-7.385-7.828-9.622-10.716-4.692-6.058-6.359-6.68-5.428-2.025m107.469 82.291c5.501 5.281 11.77 11.037 13.929 12.793 2.159 1.756 7.099 5.958 10.975 9.34 3.877 3.382 11.927 9.396 17.89 13.364 5.963 3.968 11.992 8.289 13.397 9.601 3.597 3.36 4.291 2.998 3.574-1.864-.578-3.918-.509-4.098.872-2.309.825 1.068 1.506 3.093 1.514 4.5.039 6.527 3.157 5.706 4.393-1.156.961-5.333 2.809-5.997 1.963-.705-.555 3.475-.426 4.076.727 3.379 2.498-1.51 30.31-21.643 33.402-24.18 5.934-4.868 32.5-30.449 32.5-31.295 0-1.221-15.917 7.274-25.871 13.809-8.28 5.435-8.402 5.477-11.154 3.851-1.531-.904-4.884-1.644-7.452-1.644-2.568 0-9.653-1.148-15.746-2.551l-11.078-2.552-10.67 2.552c-5.868 1.403-12.914 2.551-15.658 2.551-2.838 0-5.825.633-6.93 1.468-2.766 2.093-4.112 1.896-8.837-1.293-5.865-3.958-23.345-13.769-27.924-15.672-3.354-1.395-2.6-.418 6.184 8.013M237 168.439c0 2.273 5.135 7.72 8.671 9.197 7.784 3.252 7.061.873-1.671-5.498-4.266-3.113-7-4.557-7-3.699m34.5 4.223c-6.952 5.233-8.081 6.95-3.88 5.901 4.413-1.102 8.689-4.1 10.687-7.494 2.574-4.373.465-3.88-6.807 1.593m-66.465 2.944c-4.962 7.825-7.496 16.745-7.517 26.468-.016 7.802.252 9.009 2.982 13.409 1.869 3.013 4.508 5.624 7 6.926 3.989 2.085 3.992 2.092 1.194 2.413-1.543.177-4.657-.643-6.92-1.823l-4.114-2.144 1.52 2.322c2.401 3.67 11.762 9.75 17.641 11.459 3.515 1.022 6.981 1.339 10.026.915 5.968-.829 15.865-5.597 19.504-9.396 2.776-2.897 2.809-3.067 1.67-8.555-.64-3.08-1.33-5.6-1.535-5.6-.205 0-2.044.987-4.087 2.192-7.284 4.298-18.342 1.765-23.717-5.433-5.446-7.291-5.816-15.415-1.083-23.741l2.548-4.482-4.323-3.79c-7.331-6.425-7.431-6.436-10.789-1.14m96.239.178-5.226 4.716 1.983 2.369c3.202 3.827 5.2 12.149 4.095 17.064-2.981 13.269-17.054 20.437-27.744 14.13-2.022-1.193-4.043-1.802-4.492-1.353-.45.45-1.112 3.325-1.472 6.391l-.655 5.575 6.219 4.153c6.293 4.202 14.176 7.171 19.041 7.171 7.213 0 20.765-6.975 24.435-12.576l1.587-2.422-3.273 1.995c-1.799 1.098-4.847 1.993-6.772 1.99l-3.5-.006 4.236-2.539c2.531-1.517 5.349-4.432 7-7.24 2.376-4.041 2.756-5.756 2.711-12.202-.036-4.991-.799-9.706-2.28-14.094-2.317-6.862-7.933-17.061-9.667-17.554-.55-.156-3.352 1.838-6.226 4.432m-12.409 10.124-2.233 1.809 2.184 2.776c5.056 6.428.582 16.507-7.327 16.507-3.248 0-8.489-4.967-8.489-8.046 0-1.841-.244-1.996-1.5-.954-3.505 2.909-.795 9.195 5.218 12.106 12.808 6.2 25.678-7.394 19.359-20.448-2.581-5.33-4.212-6.179-7.212-3.75m-67.8 3.19c-5.543 9.862 1.623 22.402 12.802 22.402 5.728 0 9.595-2.303 11.867-7.069 1.546-3.241 1.543-3.582-.039-5.165-1.593-1.593-1.695-1.587-1.695.097 0 3.014-5.447 7.637-9 7.637-4.764 0-9-4.671-9-9.923 0-2.744.654-4.731 2-6.077 2.617-2.617 2.524-3.44-.547-4.839-3.661-1.668-3.848-1.582-6.388 2.937M253 207c-1.023 2.469-.961 4.122.347 9.328.874 3.481 2.402 8.243 3.397 10.584l1.807 4.256 2.331-6.834c1.283-3.759 2.57-9.881 2.861-13.605.467-5.982.338-6.697-1.107-6.143-.9.345-1.636 1.03-1.636 1.521 0 1.385-1.981 1.055-3.643-.607-2.157-2.157-2.956-1.881-4.357 1.5m9.489 25.61c-3.111 5.308-4.902 5.391-8.264.383-1.29-1.921-2.768-3.643-3.286-3.827-.517-.183-2.701 1.062-4.854 2.766-2.152 1.705-6.539 4.33-9.749 5.834-7.652 3.585-18.977 3.737-27.21.366l-5.375-2.201.462 11.785c.403 10.261.949 13.232 4.231 22.988 2.073 6.162 4.426 12.012 5.231 13 1.31 1.609 1.402 1.196.885-3.954-1.064-10.595 2.624-5.645 4.475 6.008 1.852 11.656 13.377 29.59 24.314 37.833 6.643 5.008 7.69 5.334 6.915 2.159-.539-2.206-.493-2.199 2.343.347 7.805 7.005 10.217 7.345 16.749 2.357 3.099-2.366 4.644-3.062 4.644-2.093 0 4.655 12.817-6.217 20.164-17.104 6.391-9.471 8.708-14.73 9.931-22.538 1.195-7.627 2.77-12.719 3.935-12.719.482 0 .646 2.363.364 5.25-.493 5.062-.456 5.161 1.034 2.75.85-1.375 2.78-6.325 4.288-11 2.333-7.228 2.746-10.221 2.759-20 .008-6.325-.31-12.665-.709-14.09l-.724-2.59-5.771 2.828c-11.945 5.854-24.652 4.297-37.668-4.614l-6.473-4.432zm-22.994 10.64c1.091 5.42 1.598 6.75 2.572 6.75 1.04 0 1.27-5.957.326-8.418-.334-.87-1.27-1.582-2.079-1.582-1.129 0-1.32.759-.819 3.25m37.179-2.5c-1.099 1.858-1.731 9.097-.842 9.646 1.112.688 3.168-4.533 3.168-8.045 0-2.242-1.383-3.194-2.326-1.601m-52.639 6.417c.045 4.179 2.523 9.099 3.42 6.79.848-2.181-.773-9.23-2.234-9.717-.803-.267-1.209.736-1.186 2.927m67.662-2.433c-1.16 2.011-1.749 10.266-.734 10.266 1.319 0 3.037-4.246 3.037-7.506 0-2.397-1.486-4.178-2.303-2.76m-77.181 10.217c-.693 2.181 1.043 9.658 2.442 10.523 1.718 1.062 1.989-1.225.811-6.839-1.233-5.881-2.206-6.983-3.253-3.684m89.852.719c-1.099 4.38-.949 9.594.29 10.029 1.358.476 3.38-7.838 2.617-10.757-.721-2.755-2.121-2.405-2.907.728M255 263.935c0 4.26 1.699 8.065 3.6 8.065 1.267 0 1.522-.638 1.098-2.75-1.521-7.574-4.698-11.168-4.698-5.315m-29 3.959c0 3.144 1.833 8.106 2.994 8.106 1.643 0 1.728-1.459.325-5.578-1.851-5.431-3.319-6.549-3.319-2.528m68.613 2.729c-2.025 5.942-.7 9.379 1.773 4.598 1.739-3.363 2.189-9.221.708-9.221-.498 0-1.615 2.08-2.481 4.623m-52.209 9.997c1.301 5.461 6.596 10.769 6.596 6.611 0-2.337-3.951-8.396-5.891-9.034-1.07-.352-1.233.208-.705 2.423m28.256-.224c-3.502 5.344-2.9 10.736.749 6.704 1.96-2.165 3.36-9.1 1.837-9.1-.559 0-1.722 1.078-2.586 2.396m5.441 20.142c-3.311 3.771-4.006 6.462-1.669 6.462 1.441 0 4.712-4.028 5.862-7.218 1.151-3.197-1.075-2.795-4.193.756M236 298.935c0 4.182 6.002 12.065 9.187 12.065 3.044 0 2.053-2.36-3.276-7.803-5.265-5.376-5.911-5.842-5.911-4.262m49.629 5.672c-6.144 7.463-4.351 10.092 2.145 3.145 2.36-2.524 4.693-8.752 3.279-8.752-.445 0-2.885 2.523-5.424 5.607m13.038 10.06c-1.526 1.526-.355 5.441 4.849 16.209 6.587 13.631 13.161 23.776 17.465 26.955 4.18 3.086 6.019 2.257 6.019-2.713 0-3.269-1.06-5.374-6.182-12.281-3.401-4.586-8.321-11.612-10.934-15.614-4.611-7.062-9.342-13.223-10.153-13.223-.219 0-.698.3-1.064.667m-77.341 5.587c-1.108 1.235-4.741 5.874-8.072 10.308-3.332 4.434-8.397 10.621-11.255 13.749-4.987 5.456-5.162 5.84-4.315 9.438 1.991 8.455 8.693 3.997 16.323-10.858 4.726-9.2 10.455-23.762 9.661-24.556-.18-.18-1.234.684-2.342 1.919m6.831.841c-.517 1.323-2.163 5.78-3.656 9.905-1.493 4.125-5.864 13.882-9.712 21.683-6.72 13.622-6.932 14.274-5.379 16.492 1.992 2.844 9.299 6.874 11.166 6.158 2.333-.896 6.335-10.754 10.946-26.965 6.404-22.517 6.321-21.162 1.586-25.773l-4.01-3.905zm63.017 3.219c-2.701 2.876-2.714 4.697-.086 12.771 5.291 16.262 10.268 27.345 14.186 31.597 2.189 2.375 4.562 4.318 5.272 4.318 1.513 0 5.512-6.116 5.709-8.732.074-.991-1.694-4.496-3.929-7.789-2.236-3.292-7.277-12.397-11.202-20.232-3.926-7.836-7.281-14.247-7.456-14.247-.175 0-1.298 1.042-2.494 2.314m21.826.18c0 2.714 12.979 17.872 17.2 20.088 3.664 1.924 4.301 1.808 5.588-1.017 1.028-2.255.782-2.627-3.335-5.04-2.444-1.432-7.034-4.724-10.2-7.315-8.643-7.074-9.253-7.517-9.253-6.716m-34.389 8.794c-1.73 1.271-1.785 1.842-.662 6.8 2.26 9.978 2.161 9.859 4.19 5.091 1.516-3.561 2.193-4.208 3.85-3.682 3.09.98 2.436-1.12-1.739-5.585-3.384-3.619-3.935-3.876-5.639-2.624m-35.753 2.162c-3.047 2.071-4.858 4.352-4.858 6.12 0 .224 1.012.299 2.25.168 1.77-.187 2.699.698 4.357 4.151 2.048 4.269 2.124 4.318 2.762 1.776.361-1.438.94-5.326 1.286-8.64.732-7.002-.047-7.482-5.797-3.575M287 347.777c0 .428-1.371 2.279-3.047 4.114l-3.047 3.336 2.12 7.136c2.556 8.605 8.586 18.137 11.474 18.137 3.556 0 4.264-6.266 1.694-15.001-2.765-9.397-6.769-18.499-8.139-18.499-.58 0-1.055.35-1.055.777m-50.99 2.473c-1.098 2.611-6.527 21.773-7.473 26.376-.713 3.476.953 5.85 5.258 7.486 4.856 1.846 7.755-3.801 10.721-20.883l1.313-7.559-3.082-3.835c-3.516-4.375-5.378-4.814-6.737-1.585m16.962-.198c-1.776 3.319-5.147 21.252-5.253 27.948-.188 11.913 4.443 16.315 8.731 8.298 1.884-3.522 2.358-6.445 2.935-18.09.409-8.259.298-14.911-.272-16.411-1.244-3.272-4.785-4.278-6.141-1.745m14.925.443c-2.231 1.213-2.695 2.299-3.25 7.607-.792 7.58-.701 20.671.191 27.387.841 6.336 2.353 6.672 8.589 1.911l4.81-3.672-.658-9.114c-.788-10.929-2.3-19.126-4.219-22.864-1.607-3.131-1.892-3.196-5.463-1.255" transform="translate(-256.022 -225.21)"/>
    </g>
</svg>
